<svg width="146" height="146" viewBox="0 0 146 146" fill="none" xmlns="http://www.w3.org/2000/svg"><g clip-path="url(#a)"><circle cx="73" cy="73" r="82" fill="#000"/><path d="M67.48 139.886c-15.137-1.574-27.49-6.57-38.166-15.444-1.996-1.665-6.855-6.558-8.612-8.669-2.475-2.977-5.315-6.957-6.73-9.41-.832-1.46-2.6-4.973-3.364-6.73C7.882 93.384 6 86.484 5.315 80.13c-.342-3.114-.41-4.369-.41-7.87 0-4.517.273-7.882.97-11.977.25-1.46.353-1.802.798-2.692 2.144-4.209 5.292-8.11 8.84-10.973 1.277-1.038 3.889-2.771 5.258-3.49.604-.32 1.118-.582 1.152-.582s-.205 1.095-.548 2.43c-.798 3.25-.924 4.072-.741 5.064.08.422.25 1.004.4 1.29.65 1.288 2.748 1.425 3.752.239.33-.4.365-.536.536-2.122.616-5.452 2.407-10.927 5.121-15.66 4.164-7.244 9.627-13.14 16.243-17.555 4.802-3.205 9.957-4.859 15.706-5.019 3.947-.114 6.935.343 10.882 1.643 4.825 1.597 9.524 5.247 12.592 9.775 1.677 2.464 2.304 4.232 2.304 6.524 0 .719-.034 1.3-.068 1.3-.046 0-.388-.227-.776-.501-2.726-1.94-6.547-3.741-9.946-4.677-4.072-1.118-10.47-1.665-15.501-1.334-3.171.216-5.042.684-7.528 1.882-2.453 1.197-3.867 2.384-4.597 3.878-.582 1.197-.65 1.62-.376 2.361.444 1.186 1.072 1.563 2.395 1.437.639-.057.65-.057 1.78-1.186 1.3-1.289 2.178-1.916 3.58-2.567 2.18-1.015 4.107-1.288 8.966-1.288 3.719 0 5.167.137 8.133.752 7.037 1.449 13.026 5.475 17.018 11.44.673 1.016 2.007 3.925 1.86 4.061-.046.057-.525-.262-1.062-.695-2.543-2.076-5.748-3.582-9.147-4.312-7.551-1.62-15.718-1.802-23.645-.513-5.247.855-10.027 3.673-13.494 7.973-1.574 1.962-2.133 3.479-2.053 5.657.045 1.266.057 1.346.422 1.905.673 1.05 1.483 1.54 2.737 1.688.685.069.696.08.764.49.126.674.674 1.769 1.141 2.293.251.274.958.879 1.586 1.346 1.015.765 2.965 2.339 5.304 4.255 1.403 1.163 4.151 2.749 6.65 3.867 4.071 1.802 8.349 2.84 13.07 3.205 2.408.182 7.198.068 10.267-.228 1.346-.137 2.497-.228 2.566-.206s-.354.365-.947.753c-4.733 3.114-10.003 4.494-16.425 4.312-4.323-.126-7.63-.936-11.509-2.84-1.654-.799-4.585-2.68-6.57-4.21-.992-.764-1.05-.786-1.654-.786-1.585.022-2.395.81-2.406 2.35 0 .855.057.935 1.63 2.303 4.734 4.107 9.913 6.468 16.22 7.38 3.65.525 5.886.593 9.297.274 5.714-.536 11.942-2.92 15.74-6.034 2.327-1.905 4.768-4.745 6.046-7.038.148-.273.33-.49.399-.49.068 0 .273.16.467.353.434.457 2.019 1.666 2.327 1.757.32.103.285.251-.114.593-.707.593-1.015 1.837-.673 2.738.057.17.924 1.106 1.916 2.087 3.856 3.776 6.205 7.46 7.951 12.49.49 1.414.593 1.574 1.22 1.87 1.403.685 3.046-.136 3.376-1.688.137-.638-.045-1.654-.479-2.737l-.285-.696h1.62c1.985 0 4.95-.182 6.684-.4 1.722-.227 3.559-.752 4.984-1.436a30 30 0 0 1 1.768-.787l.605-.229.194.263c.422.559 1.243 2.395 1.517 3.399.205.741.319 1.494.365 2.452l.068 1.38-.844.708c-4.163 3.467-8.714 5.44-14.155 6.113-3.045.377-10.471.32-16.174-.114-10.62-.82-20.554-2.851-30.74-6.296-3.753-1.277-6.057-2.167-8.954-3.49-3.832-1.745-7.288-3.548-11.246-5.852-1.016-.593-2.224-1.209-2.68-1.368-2.02-.685-4.38-.97-6.263-.742-1.882.228-4.117 1.46-5.623 3.091-1.757 1.894-2.749 5.087-2.464 7.928.445 4.47 2.27 8.007 5.703 11.03C49.72 110.07 63.727 117.04 79.057 120.21c11.714 2.419 24.466 3.673 33.637 3.32 4.015-.16 4.209-.171 4.357-.023.194.194-3.696 3.194-6.924 5.349-2.498 1.666-4.79 2.977-7.699 4.415-7.939 3.923-16.368 6.125-25.55 6.684-2.566.159-7.608.125-9.399-.069" fill="#5f9f2f"/><path d="M115.146 79.433c-.182-.023-1.129-.125-2.087-.24L111.314 79l-.639-.913c-.856-1.22-2.304-3.08-3.57-4.585-.571-.673-1.015-1.243-.981-1.266.023-.023.878.137 1.905.353 4.129.879 7.083 1.152 11.782 1.061 3.605-.068 4.996-.228 7.677-.878 1.619-.388 2.52-.742 3.604-1.38.433-.263.81-.434.844-.41.103.102-.696 1.813-1.277 2.76-1.084 1.733-3.285 3.581-5.213 4.368-.913.365-3 .867-4.54 1.106-1.14.172-5.03.32-5.76.217m18.364-25.926c-2.03-1.038-3.81-1.529-8.6-2.407-4.791-.867-6.365-1.05-9.73-1.106-5.44-.103-7.938.262-10.767 1.562-.502.228-1.209.605-1.563.833s-.65.388-.65.353c0-.228 1.152-1.62 2.019-2.44 1.928-1.825 3.867-2.692 7.539-3.365 1.7-.32 2.738-.354 5.761-.171 3.421.205 5.988.536 9.889 1.266 2.178.41 3.387.821 4.414 1.483.856.558 1.985 1.745 2.532 2.669.548.9.821 2.041.491 1.984-.046-.011-.65-.308-1.335-.661m-84.965-1.928c-.148-.25.901-1.665 2.247-3.011 2.612-2.612 5.464-4.004 9.89-4.814a52.6 52.6 0 0 1 10.835-.832c4.688.114 8.486.775 12.98 2.27 1.483.49 1.894.672 2.67 1.231.958.685 2.851 2.304 2.771 2.373-.023.023-.9-.16-1.962-.41-7.847-1.894-17.257-2.59-22.903-1.689-5.384.844-10.893 2.475-15.273 4.506-1.072.49-1.164.524-1.255.376M99.291 47.2c-1.026-3.845-2.92-7.94-5.155-11.145-.354-.513-.468-.753-.365-.81.17-.114 3.399-.627 5.292-.855 6.08-.719 11.623.091 16.847 2.464 2.783 1.254 5.544 3.045 7.163 4.642l1.084 1.06-.741-.068c-5.088-.456-9.559-.616-11.372-.399-4.358.513-8.224 2.327-11.327 5.315-.547.525-1.015.958-1.05.958-.033 0-.204-.524-.376-1.163m19.22-14.463a37.3 37.3 0 0 0-11.52-2.977c-1.677-.16-6.297-.069-10.095.182-1.38.092-2.783.172-3.102.172h-.605v-1.3c0-2.784-.525-4.324-2.954-8.658-.445-.799-.81-1.517-.81-1.597 0-.4 3.559-1.608 6.102-2.087 1.426-.263 4.78-.263 6.616.011 3.365.48 6.524 1.597 9.524 3.365 1.506.89 3.593 2.874 4.802 4.562.799 1.107 1.882 3.285 2.316 4.608.456 1.392.992 4.187.798 4.164-.057 0-.536-.206-1.072-.445" fill="#5f9f2f"/><path d="M106.306 118.785c-11.497-.445-21.25-1.837-31.766-4.551-6.776-1.746-14.098-4.814-20.474-8.589-4.745-2.806-11.372-7.905-14.44-11.11-1.073-1.118-1.974-2.989-2.373-4.916-.605-2.909.536-5.464 3.011-6.73.684-.353.935-.422 1.528-.422 1.825 0 3.092.4 5.487 1.711 1.004.548 2.292 1.255 2.851 1.563 3.365 1.836 8.772 4.437 11.293 5.43 11.725 4.641 23.303 7.482 35.678 8.748 7.437.753 16.403.878 20.497.285 3.742-.548 7.129-1.608 10.403-3.25 2.281-1.141 2.817-1.484 4.311-2.761.719-.605 1.346-1.072 1.381-1.027.137.137.33 1.666.33 2.532 0 2.966-1.756 5.954-4.402 7.46a31.4 31.4 0 0 1-7.631 3.091c-3.354.867-5.658 1.072-12.832 1.164-6.696.079-10.22-.092-16.083-.776-10.346-1.209-22.094-4.209-29.656-7.574-4.574-2.041-9.228-4.779-13.163-7.756-1.654-1.255-1.962-1.426-2.749-1.506-1.597-.17-2.863 1.483-2.293 2.977.24.616.548.913 2.852 2.624 7.095 5.304 14.383 8.942 22.88 11.418 9.97 2.897 19.722 4.573 30.399 5.201 2.851.171 10.938.171 13.733 0 3.661-.217 7.345-.97 11.018-2.247 1.004-.342 1.916-.662 2.03-.696.251-.08.251.239.012 1.426-.228 1.095-.616 2.019-1.255 3.022-.433.662-.661.879-1.563 1.46-2.84 1.837-6.033 3.034-9.547 3.582-1.163.182-6.889.319-9.467.217" fill="#d8682c"/><path d="M123.53 68.403c0-.023.182-.456.399-.97 1.551-3.58 1.175-6.843-1.141-9.82-.593-.764-1.425-1.574-2.053-1.996l-.456-.308.855.068c2.647.228 5.407.753 7.814 1.483 2.395.73 3.353 1.198 4.517 2.224l.604.536.046.788c.102 1.984-.73 3.855-2.339 5.19-.718.593-2.726 1.619-4.015 2.041-1.482.48-4.231.981-4.231.764m-42.546-1.425c0-.046.217-.365.48-.708.615-.82 1.494-2.68 1.813-3.82.376-1.404.433-3.913.114-5.202-.365-1.494-1.232-3.091-2.27-4.209l-.867-.947.959.08c1.437.126 3.638.593 5.167 1.095 2.806.935 5.771 2.612 7.071 3.981.845.89 1.597 2.281 1.814 3.33.24 1.164-.262 2.521-1.209 3.24-.992.753-4.562 2.019-7.232 2.555-2.235.456-5.84.821-5.84.605m36.671-.662c-.524-.137-.935-.33-1.22-.593-.365-.331-.776-1.335-.776-1.894 0-.57.559-1.55 1.118-1.973.422-.32.593-.376 1.118-.376 2.007 0 2.977 1.05 2.68 2.931-.125.833-.342 1.14-1.095 1.574-.456.274-1.391.434-1.825.33m-14.018-.444c-.696-.194-1.049-.445-1.494-1.072-.331-.48-.342-.525-.342-1.814 0-1.106.045-1.471.274-2.133.433-1.277.604-1.528 1.904-2.794 1.586-1.54 1.825-1.711 3.069-2.156.57-.205 1.163-.422 1.334-.49.639-.24.559 0-.217.638-1.996 1.643-3.159 3.513-3.695 5.943-.091.41-.148 1.346-.137 2.372 0 .924-.023 1.677-.068 1.666-.035 0-.32-.08-.628-.16m-29.382-2.635c-.742-.194-1.278-.73-1.825-1.802-.365-.73-.457-1.677-.217-2.315.182-.502.878-1.346 1.494-1.803.548-.433.56-.433 1.38-.365 2.156.172 3.091 1.084 3.342 3.263.069.616.046.73-.308 1.38-.844 1.585-2.087 2.121-3.866 1.642m36.728-.741a2.6 2.6 0 0 1-.65-.468c-.901-.867-.73-2.19.365-2.943.422-.296.57-.33.946-.273.628.102 1.289.49 1.54.924.114.205.24.638.274.97.046.501.011.672-.217 1.003-.479.718-1.528 1.072-2.258.787m-54.032-2.76c-.661-.594-3.239-2.624-3.958-3.114-.342-.251-.627-.49-.638-.56 0-.182 1.7-1.265 2.76-1.767.525-.24 1.437-.605 2.03-.799 1.095-.353 3.205-.832 3.285-.741.035.023-.125.217-.342.422-1.471 1.403-2.293 3.342-2.452 5.726-.035.604-.114 1.13-.16 1.163-.057.023-.285-.125-.525-.33m9.582-2.692c-.65-.297-1.3-1.278-1.38-2.065-.103-1.083.558-2.213 1.516-2.578.445-.16.605-.17 1.221-.045 1.54.296 2.167 1.004 2.167 2.43 0 .444-.057.946-.114 1.106-.148.376-.901 1.095-1.312 1.243-.513.194-1.562.148-2.098-.091" fill="#fafafa"/></g><defs><clipPath id="a"><rect width="146" height="146" rx="73" fill="#fff"/></clipPath></defs></svg>